<svg xmlns="http://www.w3.org/2000/svg" width="36.41" height="37.719" viewBox="0 0 36.41 37.719">
  <defs>
    <style>
      .cls-1 {
        fill: #a3bbc8;
        fill-rule: evenodd;
      }
    </style>
  </defs>
  <path class="cls-1" d="M994.975,957.96A1.984,1.984,0,0,1,993,955.969V928.691a0.915,0.915,0,0,1,.264-0.643l7.474-7.542a0.9,0.9,0,0,1,.64-0.267h19.09a1.98,1.98,0,0,1,1.97,1.991V925.1a0.9,0.9,0,1,1-1.8,0V922.23a0.172,0.172,0,0,0-.17-0.17h-18.19v5.552a1.98,1.98,0,0,1-1.97,1.99h-5.5v26.367a0.17,0.17,0,0,0,.168.17h25.5a0.173,0.173,0,0,0,.17-0.17v-13.9a0.9,0.9,0,1,1,1.8,0v13.9a1.98,1.98,0,0,1-1.97,1.991h-25.5Zm1.108-30.178h4.227a0.173,0.173,0,0,0,.17-0.17v-4.265Zm3.977,23.708a0.91,0.91,0,0,1,0-1.82H1004l1.39-5.066a0.9,0.9,0,0,1,.23-0.4l0.02-.015h-5.58a0.91,0.91,0,0,1,0-1.82h7.38l5.43-5.48h-12.81a0.911,0.911,0,0,1,0-1.821h14.62l8.43-8.5a3.038,3.038,0,0,1,4.32,0l1.06,1.071a3.1,3.1,0,0,1,0,4.356L1011,949.632a0.889,0.889,0,0,1-.39.234l-5.7,1.6c-0.03.007-.23,0.029-0.23,0.029h-4.62Zm5.92-2.218,2.65-.744-1.91-1.933Zm1.56-4.424,2.83,2.853,14.43-14.562-2.83-2.852Zm16.84-17L1023.25,929l2.83,2.853,1.13-1.147a1.264,1.264,0,0,0,0-1.782l-1.06-1.071a1.225,1.225,0,0,0-.88-0.369A1.265,1.265,0,0,0,1024.38,927.852Z" transform="translate(-993 -920.25)"/>
</svg>
